<svg id="图层_1" data-name="图层 1" xmlns="http://www.w3.org/2000/svg" viewBox="0 0 1014.24 558.36"><defs><style>.cls-1,.cls-10,.cls-11,.cls-12,.cls-13,.cls-14,.cls-15,.cls-2,.cls-3,.cls-4,.cls-5,.cls-6,.cls-7,.cls-8,.cls-9{fill:none;}.cls-1,.cls-2,.cls-3{stroke:#bf6969;}.cls-1{stroke-width:70.91px;}.cls-2,.cls-8{stroke-width:56.73px;}.cls-10,.cls-14,.cls-3,.cls-9{stroke-width:49.64px;}.cls-4{stroke:#bf9869;}.cls-11,.cls-12,.cls-13,.cls-15,.cls-4,.cls-6{stroke-width:28.36px;}.cls-5{stroke:#b7bf69;stroke-width:78px;}.cls-6,.cls-7{stroke:#88bf69;}.cls-7{stroke-width:14.18px;}.cls-8{stroke:#69bf79;}.cls-9{stroke:#69bfa7;}.cls-10{stroke:#69a7bf;}.cls-11{stroke:#6979bf;}.cls-12{stroke:#8869bf;}.cls-13{stroke:#b769bf;}.cls-14,.cls-15{stroke:#bf6998;}.cls-16{isolation:isolate;font-size:10px;font-family:ArialMT, Arial;}.cls-17{letter-spacing:-0.02em;}.cls-18{letter-spacing:-0.07em;}.cls-19{letter-spacing:-0.04em;}.cls-20{letter-spacing:-0.06em;}</style></defs><title>0-4male</title><path class="cls-1" d="M180.76,143.3c207.25,0,207.25-5,414.5-5" transform="translate(-3.76 -57.82)"/><path class="cls-2" d="M180.76,306.39c207.25,0,207.25,25,414.5,25" transform="translate(-3.76 -57.82)"/><path class="cls-3" d="M180.76,253.21c207.25,0,207.25,15,414.5,15" transform="translate(-3.76 -57.82)"/><path class="cls-3" d="M180.76,203.57c207.25,0,207.25,5,414.5,5" transform="translate(-3.76 -57.82)"/><path class="cls-4" d="M180.76,382.94c233.18,0,202.3,10,413.5,10" transform="translate(-3.76 -57.82)"/><path class="cls-4" d="M180.76,411.3c261.65.42,202.88,20,413.5,20" transform="translate(-3.76 -57.82)"/><path class="cls-4" d="M180.76,439.67c233.18,0,202.3,30,413.5,30" transform="translate(-3.76 -57.82)"/><path class="cls-5" d="M181,531c207.25,0,209,19.76,416.26,19.76" transform="translate(-3.76 -57.82)"/><path class="cls-6" d="M600,118c207.25,0,208.75-46,416-46" transform="translate(-3.76 -57.82)"/><path class="cls-7" d="M600,166h416" transform="translate(-3.76 -57.82)"/><path class="cls-7" d="M600,138c207.44,0,208.32-27.06,415.76-27.06" transform="translate(-3.76 -57.82)"/><path class="cls-7" d="M601,152l415-12" transform="translate(-3.76 -57.82)"/><path class="cls-8" d="M601.26,331.39c207.25,0,207.25,20,414.5,20" transform="translate(-3.76 -57.82)"/><path class="cls-9" d="M601.26,268.21c207.25,0,207.25,20,414.5,20" transform="translate(-3.76 -57.82)"/><path class="cls-10" d="M601.26,208.57c207.25,0,207.25,20,414.5,20" transform="translate(-3.76 -57.82)"/><path class="cls-11" d="M600.26,392.94c207.25,0,205.25,14,412.5,14" transform="translate(-3.76 -57.82)"/><path class="cls-12" d="M600.26,431.3c207.25,0,205.25,14,412.5,14" transform="translate(-3.76 -57.82)"/><path class="cls-13" d="M600.26,469.67c207.25,0,205.25,14,412.5,14" transform="translate(-3.76 -57.82)"/><path class="cls-14" d="M603,537c207.25,0,207.51,16.94,414.76,16.94" transform="translate(-3.76 -57.82)"/><path class="cls-15" d="M603,575c207.25,0,207.75,27,415,27" transform="translate(-3.76 -57.82)"/><text class="cls-16" transform="translate(0 156.98)">CE<tspan class="cls-17" x="13.89" y="0">R</tspan><tspan class="cls-18" x="20.93" y="0">T</tspan><tspan x="26.3" y="0">AIN CONDITIONS ORIGIN</tspan><tspan class="cls-18" x="146.86" y="0">A</tspan><tspan x="152.79" y="0">TING</tspan><tspan x="0" y="12" xml:space="preserve"> IN</tspan><tspan class="cls-17" x="12.78" y="12"> </tspan><tspan x="15.38" y="12">THE PERIN</tspan><tspan class="cls-18" x="68.72" y="12">AT</tspan><tspan x="80.01" y="12">A</tspan><tspan class="cls-19" x="86.68" y="12">L</tspan><tspan x="91.87" y="12" xml:space="preserve"> PERIOD</tspan></text><text class="cls-16" transform="translate(0 345.98)">CONGENI<tspan class="cls-18" x="46.67" y="0">T</tspan><tspan x="52.04" y="0">A</tspan><tspan class="cls-19" x="58.71" y="0">L</tspan><tspan x="63.9" y="0" xml:space="preserve"> MALFORM</tspan><tspan class="cls-18" x="116.67" y="0">A</tspan><tspan x="122.6" y="0">TIONS, </tspan><tspan x="0" y="12">DEFORM</tspan><tspan class="cls-18" x="43.33" y="12">A</tspan><tspan x="49.26" y="12">TIONS</tspan><tspan class="cls-20" x="79.81" y="12"> </tspan><tspan x="82.04" y="12">AND </tspan><tspan x="0" y="24">CHROMOSOMA</tspan><tspan class="cls-19" x="75" y="24">L</tspan><tspan class="cls-20" x="80.19" y="24"> </tspan><tspan x="82.42" y="24">ABNORMALITIES</tspan></text><text class="cls-16" transform="translate(0 473.44)">SYMP<tspan class="cls-17" x="28.34" y="0">T</tspan><tspan x="34.27" y="0">OMS, SIGNS</tspan><tspan class="cls-20" x="93.72" y="0"> </tspan><tspan x="95.95" y="0">AND</tspan><tspan class="cls-20" x="117.06" y="0"> </tspan><tspan x="119.29" y="0">ABNORMA</tspan><tspan class="cls-19" x="169.85" y="0">L</tspan><tspan x="0" y="12" xml:space="preserve"> CLINICA</tspan><tspan class="cls-19" x="42.23" y="12">L</tspan><tspan class="cls-20" x="47.42" y="12"> </tspan><tspan x="49.65" y="12">AND LABOR</tspan><tspan class="cls-18" x="107.44" y="12">A</tspan><tspan class="cls-17" x="113.37" y="12">T</tspan><tspan x="119.3" y="12">O</tspan><tspan class="cls-17" x="127.08" y="12">RY</tspan><tspan x="140.61" y="12" xml:space="preserve"> FINDINGS, </tspan><tspan x="0" y="24">NO</tspan><tspan class="cls-17" x="15" y="24">T</tspan><tspan x="20.93" y="24" xml:space="preserve"> ELSEWHERE CLASSIFIED</tspan></text><path d="M1016,263" transform="translate(-3.76 -57.82)"/><path d="M1016,313" transform="translate(-3.76 -57.82)"/><text class="cls-16" transform="translate(883.72 233.89)">Bacterial sepsis of newborn</text><path d="M1016,160" transform="translate(-3.76 -57.82)"/><path d="M1016,174" transform="translate(-3.76 -57.82)"/><text class="cls-16" transform="translate(943.19 107.98)">Birth asphyxia</text><path d="M999,58" transform="translate(-3.76 -57.82)"/><path d="M1016,86" transform="translate(-3.76 -57.82)"/><text class="cls-16" transform="translate(745.52 20.26)">Cardiovascular disorders originating in the perinatal period</text><path d="M1016,323" transform="translate(-3.76 -57.82)"/><path d="M1000,370" transform="translate(-3.76 -57.82)"/><text class="cls-16" transform="translate(647.48 297.07)">Disorders related to short gestation and low birth weight, not elsewhere classified</text><path d="M1013,470" transform="translate(-3.76 -57.82)"/><path d="M1013,498" transform="translate(-3.76 -57.82)"/><text class="cls-16" transform="translate(814.35 384.35)">Edwards syndrome and Patau syndrome</text><path d="M1016,204" transform="translate(-3.76 -57.82)"/><path d="M1016,254" transform="translate(-3.76 -57.82)"/><text class="cls-16" transform="translate(803.67 174.26)">Necrotizing enterocolitis of fetus and newborn</text><path d="M1013,431" transform="translate(-3.76 -57.82)"/><path d="M1013,459" transform="translate(-3.76 -57.82)"/><text class="cls-16" transform="translate(805.91 345.98)">Other congenital malformations of brain</text><text class="cls-16" transform="translate(814.36 425.62)">Other congenital malformations of heart</text><path d="M1018,491" transform="translate(-3.76 -57.82)"/><path d="M1018,519" transform="translate(-3.76 -57.82)"/><text class="cls-16" transform="translate(773.43 548.62)">Other ill-defined and unspecified causes of mortality</text><path d="M1016,136" transform="translate(-3.76 -57.82)"/><path d="M1016,150" transform="translate(-3.76 -57.82)"/><text class="cls-16" transform="translate(735.29 85.8)">Other respiratory conditions originating in the perinatal period</text><path d="M1022,462" transform="translate(-3.76 -57.82)"/><path d="M1016,118" transform="translate(-3.76 -57.82)"/><text class="cls-16" transform="translate(865.39 56.62)">Respiratory distress of newborn</text><path d="M1018,529" transform="translate(-3.76 -57.82)"/><path d="M1018,579" transform="translate(-3.76 -57.82)"/><text class="cls-16" transform="translate(873.79 496.62)">Sudden infant death syndrome</text><rect x="590.24" y="398.18" width="6" height="28"/><text class="cls-16" transform="translate(349.28 415.35)">Chromosomal abnormalities, not elsewhere classified</text><rect x="590.24" y="321.18" width="6" height="28"/><text class="cls-16" transform="translate(362.52 334.62)">Congenital malformations of the circulatory system</text><rect x="590.24" y="359.18" width="6" height="28"/><text class="cls-16" transform="translate(372.51 376.98)">Congenital malformations of the nervous system</text><rect x="591.24" y="126.18" width="6" height="50"/><text class="cls-16" transform="translate(369.84 154.26)">Digestive system disorders of fetus and newborn</text><rect x="591.24" y="245.18" width="6" height="57"/><text class="cls-16" transform="translate(339.8 277.07)">Disorders related to length of gestation and fetal growth</text><rect x="593.24" y="454.18" width="6" height="78"/><text class="cls-16" transform="translate(395.73 496.44)">Ill-defined and unknown causes of mortality</text><rect x="591.24" y="185.18" width="6" height="50"/><text class="cls-16" transform="translate(407.06 213.89)">Infections specific to the perinatal period</text><rect x="591.24" y="45.18" width="6" height="71"/><text class="cls-16" transform="translate(268.12 83.98)">Respiratory and cardiovascular disorders specific to the perinatal period</text></svg>